HIERARCHY
ROOT Hips
{
  OFFSET 0 89.5177 0.535
  CHANNELS 6 Xposition Yposition Zposition Zrotation Xrotation Yrotation
  JOINT Spine
  {
    OFFSET 12.0259 -0.162855 1.69034e-005
    CHANNELS 3 Zrotation Xrotation Yrotation
    JOINT Spine1
    {
      OFFSET 15.3169 -0.0121922 0
      CHANNELS 3 Zrotation Xrotation Yrotation
      JOINT Spine2
      {
        OFFSET 15.3176 -0.0121908 0
        CHANNELS 3 Zrotation Xrotation Yrotation
        JOINT Neck
        {
          OFFSET 19.9142 1.56338 0
          CHANNELS 3 Zrotation Xrotation Yrotation
          JOINT Head
          {
            OFFSET 6.92651 0 0
            CHANNELS 3 Zrotation Xrotation Yrotation
            End Site
            {
              OFFSET 20.7666 0 0
            }
          }
          JOINT LeftShoulder
          {
            OFFSET -6.20654 0.708824 7.28219
            CHANNELS 3 Zrotation Xrotation Yrotation
            JOINT LeftArm
            {
              OFFSET 14.108 0 -1.52588e-005
              CHANNELS 3 Zrotation Xrotation Yrotation
              JOINT LeftForeArm
              {
                OFFSET 28.5802 0 0
                CHANNELS 3 Zrotation Xrotation Yrotation
                JOINT LeftHand
                {
                  OFFSET 27.092 0 0
                  CHANNELS 3 Zrotation Xrotation Yrotation
                  End Site
                  {
                    OFFSET 9.55928 -0.186424 0.145352
                  }
                }
              }
            }
          }
          JOINT RightShoulder
          {
            OFFSET -6.20654 0.708866 -7.28218
            CHANNELS 3 Zrotation Xrotation Yrotation
            JOINT RightArm
            {
              OFFSET 14.108 0 1.52588e-005
              CHANNELS 3 Zrotation Xrotation Yrotation
              JOINT RightForeArm
              {
                OFFSET 28.5802 0 0
                CHANNELS 3 Zrotation Xrotation Yrotation
                JOINT RightHand
                {
                  OFFSET 27.092 0 0
                  CHANNELS 3 Zrotation Xrotation Yrotation
                  End Site
                  {
                    OFFSET 9.55929 -0.186417 -0.145354
                  }
                }
              }
            }
          }
        }
      }
    }
  }
  JOINT LeftUpLeg
  {
    OFFSET 0.005 -0.535 8.837
    CHANNELS 3 Zrotation Xrotation Yrotation
    JOINT LeftLeg
    {
      OFFSET 39.9035 0 0
      CHANNELS 3 Zrotation Xrotation Yrotation
      JOINT LeftFoot
      {
        OFFSET 39.6689 0 0
        CHANNELS 3 Zrotation Xrotation Yrotation
        JOINT LeftToe
        {
          OFFSET 10.1624 13.6296 0
          CHANNELS 3 Zrotation Xrotation Yrotation
          End Site
          {
            OFFSET 8.38147 0 0
          }
        }
      }
    }
  }
  JOINT RightUpLeg
  {
    OFFSET 0.005 -0.535 -8.837
    CHANNELS 3 Zrotation Xrotation Yrotation
    JOINT RightLeg
    {
      OFFSET 39.9035 0 0
      CHANNELS 3 Zrotation Xrotation Yrotation
      JOINT RightFoot
      {
        OFFSET 39.6689 0 0
        CHANNELS 3 Zrotation Xrotation Yrotation
        JOINT RightToe
        {
          OFFSET 10.1624 13.6296 0
          CHANNELS 3 Zrotation Xrotation Yrotation
          End Site
          {
            OFFSET 8.38147 0 0
          }
        }
      }
    }
  }
}
MOTION
Frames:	6
Frame Time:	0.0333333
569.123 89.3152 271.406 102.773 -42.2547 6.44512 -1.26601 -0.441535 -0.667203 -2.53717 -0.867727 -1.34387 -2.53717 -0.867727 -1.34388 -8.30609e-012 -9.0191e-006 -5.27751e-005 11.9509 -5.50472 6.58828 179.555 1.847 -76.4476 22.0349 14.144 55.3551 -80.2619 -6.36111e-015 6.36111e-015 -133.594 -60.1375 -142.099 -177.641 7.47934 72.4411 4.36113 15.5107 -55.0143 -100.485 1.59028e-015 -0 -40.4085 64.8987 36.5975 -13.8121 10.3317 -177.945 -23.6306 6.36111e-015 3.18055e-015 20.161 1.12582 -2.46279 90 -1.19271e-015 6.36111e-015 -26.0138 -13.4798 174.738 -17.6296 -6.36111e-015 -4.96962e-016 4.75358 -6.80296 13.7307 90 -3.97569e-016 -6.36111e-015 
569.011 89.2942 271.593 103.014 -42.5682 6.73955 -1.32676 -0.283826 -0.661219 -2.65674 -0.551783 -1.32867 -2.65674 -0.551783 -1.32868 -8.30609e-012 -9.0191e-006 -5.27751e-005 13.2596 -5.72929 7.00798 179.75 1.05166 -76.612 21.3182 14.6799 57.3056 -79.8267 -3.18055e-015 6.36111e-015 -131.934 -59.9049 -140.506 -177.889 7.60021 74.4255 5.09475 23.9279 -53.696 -94.0581 1.59028e-015 3.18055e-015 -44.9276 64.1202 41.8329 -13.9536 10.5539 -178.163 -23.7286 -3.18055e-015 -3.18055e-015 20.1695 1.05123 -2.31351 90 7.95139e-016 -9.54166e-015 -26.3228 -13.3932 174.521 -17.7024 -3.18056e-015 2.98177e-016 4.76966 -7.03156 14.2055 90 -2.78299e-015 6.36111e-015 
568.721 89.2786 271.745 102.37 -43.3774 6.54346 -1.23937 -0.0743669 -0.682098 -2.47954 -0.133494 -1.36546 -2.47954 -0.133494 -1.36547 -8.30887e-012 -9.0191e-006 -5.27751e-005 15.5877 -6.69292 7.55912 179.594 1.68267 -76.4339 21.428 15.6079 57.8826 -80.0801 -6.36111e-015 -9.54166e-015 -132.487 -59.5447 -140.8 -178.187 7.79183 76.8574 3.4026 34.8437 -52.523 -82.1499 4.77083e-015 7.95139e-015 -55.3473 61.7769 54.9789 -13.1425 11.2995 -178.448 -23.646 -3.18055e-015 3.18055e-015 20.2511 1.05501 -2.31993 90 0 -9.54166e-015 -24.757 -10.2515 175.051 -16.2316 0 1.98785e-015 3.04908 -5.68864 11.4385 90 0 6.36111e-015 
568.508 89.2599 272.07 102.265 -44.8955 6.88379 -1.22667 0.178506 -0.765507 -2.45086 0.373806 -1.52684 -2.45086 0.373807 -1.52685 -8.30669e-012 -9.0191e-006 -5.27751e-005 17.532 -6.79984 7.45966 179.453 2.27188 -76.4667 21.0834 16.5479 57.5522 -80.3274 -9.54166e-015 -9.54166e-015 -133.805 -59.3626 -141.865 -178.502 7.85392 79.1674 -1.35244 47.0952 -50.7268 -66.1692 -3.18055e-015 1.59028e-015 -61.653 55.8097 62.8791 -12.6457 12.3726 -178.902 -23.5496 -6.36111e-015 -1.59028e-015 20.1391 0.778104 -1.76124 90 3.97569e-016 -0 -24.3927 -9.06534 175.063 -15.4709 -3.18056e-015 9.93923e-016 2.67365 -5.84725 11.7606 90 -7.95139e-016 -0 
568.326 89.2405 272.423 102.335 -46.58 7.39734 -1.22305 0.524045 -0.822827 -2.43861 1.06594 -1.6342 -2.43861 1.06594 -1.63421 -8.30688e-012 -9.0191e-006 -5.27751e-005 19.1522 -6.80946 6.98406 179.289 2.96763 -76.5185 19.9961 16.9928 57.16 -80.089 3.18055e-015 6.36111e-015 -136.336 -59.213 -144.363 -178.9 7.74931 81.8936 -5.76103 60.1051 -49.1821 -47.4944 -2.78299e-015 2.38542e-015 -56.1064 50.0193 55.4618 -12.2563 13.5888 -179.383 -23.4531 9.54166e-015 3.18055e-015 19.9573 0.490476 -1.17983 90 3.97569e-016 3.18055e-015 -24.0152 -7.51894 175.161 -14.4692 6.36111e-015 -7.95139e-016 2.08073 -5.85647 11.7764 90 -1.78906e-015 -0 
568.219 89.2221 272.739 102.723 -47.8532 7.89664 -1.18393 0.91181 -0.849918 -2.35466 1.84135 -1.68095 -2.35466 1.84135 -1.68096 -8.30847e-012 -9.0191e-006 -5.27751e-005 19.2606 -7.2128 6.90974 179.205 3.37763 -76.7507 17.6595 16.7436 57.195 -79.5826 -3.18055e-015 -0 -135.533 -59.1854 -143.583 -179.358 8.06155 85.4327 -3.96161 72.407 -52.7569 -29.8501 2.98177e-015 -0 -43.2604 47.2454 40.5145 -12.4427 14.3973 -179.597 -23.7581 -6.36111e-015 -3.18055e-015 19.8311 0.18179 -0.555979 90 5.96354e-016 -0 -23.6784 -6.27998 175.389 -13.1965 0 -3.97569e-016 1.34685 -5.8392 11.7393 90 1.98785e-016 -0 
